<svg width="315" height="315" viewBox="0 0 315 315" fill="none" xmlns="http://www.w3.org/2000/svg">
<circle cx="157.5" cy="157.5" r="157.5" fill="white"/>
<circle cx="157" cy="157" r="155" fill="#535C68"/>
<circle cx="157.5" cy="157.5" r="152.5" fill="white"/>
<circle cx="157" cy="157" r="150" fill="#535C68"/>
<path d="M86 191H234C239.523 191 244 195.477 244 201V251C244 256.523 239.523 261 234 261H96C90.4772 261 86 256.523 86 251V191Z" fill="white"/>
<rect x="87" y="61" width="80" height="200" rx="10" fill="white"/>
<rect x="83" y="57" width="80" height="200" rx="10" fill="#FFBE76" fill-opacity="0.8"/>
<path d="M83 187H231C236.523 187 241 191.477 241 197V247C241 252.523 236.523 257 231 257H93C87.4772 257 83 252.523 83 247V187Z" fill="#F0932B" fill-opacity="0.8"/>
</svg>
